<?xml version="1.0" encoding="iso-8859-1"?>
<!-- Uploaded to: SVG Repo, www.svgrepo.com, Generator: SVG Repo Mixer Tools -->
<!DOCTYPE svg PUBLIC "-//W3C//DTD SVG 1.1//EN" "http://www.w3.org/Graphics/SVG/1.1/DTD/svg11.dtd">
<svg fill="#000000" height="800px" width="800px" version="1.1" id="Capa_1" xmlns="http://www.w3.org/2000/svg" xmlns:xlink="http://www.w3.org/1999/xlink" 
	 viewBox="0 0 396.586 396.586" xml:space="preserve">
<g>
	<path d="M281.603,179.637c0.828,0,1.5-0.671,1.5-1.5v-4.601h4.451c0.828,0,1.5-0.671,1.5-1.5v-9.699c0-0.829-0.672-1.5-1.5-1.5
		h-24.146c-3.842-27.97-40.149-45.072-56.818-51.509c0.26-0.794,0.404-1.637,0.404-2.515c0-3.405-2.109-6.332-5.133-7.646
		c1.078-0.939,1.76-2.294,1.76-3.806c0-1.994-1.182-3.722-2.906-4.57l-0.781-6.204c3.354-0.748,5.861-3.736,5.861-7.315v-0.5
		c0-4.142-3.357-7.5-7.5-7.5c-4.143,0-7.5,3.358-7.5,7.5v0.5c0,3.579,2.508,6.567,5.861,7.315l-0.781,6.204
		c-1.725,0.849-2.906,2.576-2.906,4.57c0,1.512,0.682,2.866,1.758,3.806c-3.021,1.313-5.131,4.24-5.131,7.646
		c0,0.877,0.144,1.721,0.404,2.515c-16.67,6.437-52.977,23.539-56.818,51.509h-24.148c-0.828,0-1.5,0.671-1.5,1.5v9.699
		c0,0.829,0.672,1.5,1.5,1.5h4.451v4.601c0,0.829,0.672,1.5,1.5,1.5h3.271v162.282h-3.271c-0.828,0-1.5,0.671-1.5,1.5v4.598h-4.451
		c-0.828,0-1.5,0.671-1.5,1.5v9.702c0,0.829,0.672,1.5,1.5,1.5h32.018c17.57,23.99,57.244,35.867,57.244,35.867
		s39.674-11.877,57.244-35.867h32.016c0.828,0,1.5-0.671,1.5-1.5v-9.702c0-0.829-0.672-1.5-1.5-1.5h-4.451v-4.598
		c0-0.829-0.672-1.5-1.5-1.5h-3.27V179.637H281.603z M161.343,331.651h-26.795V228.584c0-24.726,13.396-40.929,13.396-40.929
		s13.398,16.203,13.398,40.929V331.651z M221.644,331.651h-46.701V228.584c0-24.726,23.352-40.929,23.352-40.929
		s23.35,16.203,23.35,40.929V331.651z M262.04,331.651h-26.795V228.584c0-24.726,13.396-40.929,13.396-40.929
		s13.398,16.203,13.398,40.929V331.651z"/>
	<path d="M198.294,39.054c4.143,0,7.5-3.358,7.5-7.5v-0.963c0-4.142-3.357-7.5-7.5-7.5c-4.143,0-7.5,3.358-7.5,7.5v0.963
		C190.794,35.695,194.151,39.054,198.294,39.054z"/>
	<path d="M198.294,15.962c4.143,0,7.5-3.357,7.5-7.5V7.5c0-4.142-3.357-7.5-7.5-7.5c-4.143,0-7.5,3.358-7.5,7.5v0.962
		C190.794,12.604,194.151,15.962,198.294,15.962z"/>
	<path d="M198.294,62.145c4.143,0,7.5-3.358,7.5-7.5v-0.962c0-4.142-3.357-7.5-7.5-7.5c-4.143,0-7.5,3.358-7.5,7.5v0.962
		C190.794,58.786,194.151,62.145,198.294,62.145z"/>
</g>
</svg>